<svg id="Layer_1" data-name="Layer 1" xmlns="http://www.w3.org/2000/svg" viewBox="0 0 25.0395 23.3032"><defs><style>.cls-1{fill:#2c3e50;}</style></defs><path class="cls-1" d="M21.4993,8.2744a2.0231,2.0231,0,0,1,1.752,3.0346l-3.25,5.6285-3.25,5.6286a2.0231,2.0231,0,0,1-3.504,0l-3.25-5.6286-3.25-5.6285a2.0231,2.0231,0,0,1,1.752-3.0346H21.4993m0-4H8.5007A6.0231,6.0231,0,0,0,3.2846,13.309l3.25,5.6285,3.25,5.6286a6.0231,6.0231,0,0,0,10.4322,0l3.25-5.6286,3.25-5.6285a6.0231,6.0231,0,0,0-5.2161-9.0346Z" transform="translate(-2.4802 -4.2744)"/></svg>