<svg xmlns="http://www.w3.org/2000/svg" viewBox="0 0 50 50"><path d="M26.21,28.5a3.61,3.61,0,0,1-2-.62l-12-8.69V33.12a.76.76,0,0,0,.75.75H39.5a.76.76,0,0,0,.75-.75V18.88l-11.91,9A3.79,3.79,0,0,1,26.21,28.5Z" style="fill:#364cea"/><path d="M26.3,25l11-8.25H14.82L26.21,25A.23.23,0,0,0,26.3,25Z" style="fill:#364cea"/><path d="M42,0H8A8,8,0,0,0,0,8V42a8,8,0,0,0,8,8H42a8,8,0,0,0,8-8V8A8,8,0,0,0,42,0Zm1.75,33.12a4.26,4.26,0,0,1-4.25,4.25H13a4.26,4.26,0,0,1-4.25-4.25V17.5A4.26,4.26,0,0,1,13,13.25H39.5a4.26,4.26,0,0,1,4.25,4.25Z" style="fill:#364cea"/></svg>